<svg viewBox="0 0 20 20" fill="currentColor" role="button" tabindex="0" aria-hidden="false"
  class="icon_component icon_component--clickable">
  <path
    d="M9.44764 15.9999C9.90548 15.9999 10.3446 15.8175 10.6683 15.493C10.992 15.1684 11.1739 14.7283 11.1739 14.2693L11.174 8.00878H14.2738C14.7316 8.00878 15.1707 7.82646 15.4945 7.50192C15.8182 7.17738 16.0001 6.7372 16.0001 6.27823V0.762674C16.0001 0.341318 15.6593 -0.000258097 15.239 -0.000258134L10.4129 -0.000258556C10.4085 -0.000258556 10.4042 -0.000222317 10.3998 -0.000147931L5.6101 -0.000148349C5.60249 -0.000373417 5.59485 -0.000487859 5.58718 -0.000487859L0.761045 -0.000488281C0.340732 -0.000488318 7.41769e-07 0.341088 7.04933e-07 0.762443L0 9.82594C-4.01246e-08 10.2849 0.181876 10.7251 0.505614 11.0496C0.829352 11.3742 1.26844 11.5565 1.72627 11.5565H4.82576L4.82569 14.2693C4.82569 14.7283 5.00757 15.1684 5.33131 15.493C5.65504 15.8175 6.09413 15.9999 6.55196 15.9999H9.44764ZM4.82591 1.52537L4.82578 10.0306H1.72627C1.67212 10.0306 1.62018 10.0091 1.58189 9.97068C1.5436 9.93229 1.52209 9.88023 1.52209 9.82594L1.52209 1.52537L4.82591 1.52537ZM6.34786 9.81702L6.34778 14.2693C6.34778 14.3236 6.36929 14.3757 6.40758 14.414C6.44587 14.4524 6.49781 14.474 6.55196 14.474H9.44764C9.50179 14.474 9.55373 14.4524 9.59202 14.414C9.63031 14.3757 9.65182 14.3236 9.65182 14.2693L9.65197 7.25966C9.65189 7.25507 9.65185 7.25047 9.65185 7.24585V1.52571L6.34822 1.52571L6.34822 9.79356C6.34822 9.80139 6.3481 9.80921 6.34786 9.81702ZM11.1741 6.48292L11.1741 1.5256L14.478 1.5256V6.27823C14.478 6.33252 14.4565 6.38458 14.4182 6.42297C14.3799 6.46136 14.328 6.48292 14.2738 6.48292H11.1741Z"
    fill="currentColor" fill-rule="evenodd" clip-rule="evenodd"></path>
</svg>